<?xml version="1.0" encoding="UTF-8"?>
<svg version="1.1" xmlns="http://www.w3.org/2000/svg" width="642" height="171">
<path d="M0 0 C211.86 0 423.72 0 642 0 C642 56.43 642 112.86 642 171 C430.14 171 218.28 171 0 171 C0 114.57 0 58.14 0 0 Z " fill="#F2F2F5" transform="translate(0,0)"/>
<path d="M0 0 C11.61714447 8.89789597 19.17146383 19.52258113 22 34 C23.61808309 48.56274777 20.03559395 62.44284495 11 74 C2.42939877 84.23325828 -8.87516757 89.89354541 -22 92 C-37.16188233 92.84450899 -49.55036297 89.84970733 -61.3125 79.75 C-71.70352498 69.79262935 -77.27244626 58.81788915 -78.23828125 44.45703125 C-78.55159232 29.07180865 -73.7666409 16.95054496 -63.1875 5.6875 C-45.88366278 -10.55352956 -20.02367236 -13.00603018 0 0 Z " fill="#DB2978" transform="translate(573,44)"/>
<path d="M0 0 C7.25822949 4.56340523 10.98938863 11.09323865 14 19 C17.41520059 36.21555198 17.37869963 58.54757649 8.375 74.125 C3.54642562 80.51827697 -4.17718278 84.67409878 -12 86 C-22.82121725 86.79249927 -33.58819859 86.04567761 -42.21875 78.84765625 C-52.64203619 68.03578263 -53.51419661 53.83504254 -53.4375 39.5625 C-53.45748047 38.24701172 -53.47746094 36.93152344 -53.49804688 35.57617188 C-53.49258025 24.5281303 -52.0137058 13.39898118 -44.703125 4.6484375 C-33.37122416 -6.31959496 -13.55986758 -7.63454729 0 0 Z " fill="#DB2A79" transform="translate(327,45)"/>
<path d="M0 0 C3.81450775 1.38709373 4.86144166 2.77484269 7 6.25 C9.89481233 12.61158354 11.90307393 19.34265063 14 26 C14.32871094 27.0415625 14.65742187 28.083125 14.99609375 29.15625 C16.01366576 32.43274743 17.00840061 35.71554448 18 39 C18.52726683 40.72919012 19.05461702 42.45835483 19.58203125 44.1875 C20.13830555 46.02074696 20.69429502 47.85408038 21.25 49.6875 C21.52062256 50.57397217 21.79124512 51.46044434 22.07006836 52.3737793 C22.4453064 53.61768433 22.4453064 53.61768433 22.828125 54.88671875 C23.0540332 55.63139404 23.27994141 56.37606934 23.51269531 57.14331055 C24 59 24 59 24 61 C24.66 61 25.32 61 26 61 C26.0928125 59.63875 26.0928125 59.63875 26.1875 58.25 C26.6894743 54.67881138 27.88397561 51.6790104 29.3125 48.375 C35.77784673 33.74035921 35.77784673 33.74035921 35.5078125 18.09375 C34.36641397 13.38767607 33.55128284 7.50184365 36.05859375 3.171875 C38.76351591 0.6208915 41.45552887 -0.31520262 45.0625 -0.5 C49.13300334 0.01688931 50.95762423 0.29566598 54 3 C57.67056895 8.54329123 58.65563654 13.5041115 58.5 20.0625 C58.48791504 20.89104492 58.47583008 21.71958984 58.46337891 22.57324219 C58.21221521 30.49174861 56.60722342 37.49808354 54 45 C53.61070313 46.12792969 53.22140625 47.25585938 52.8203125 48.41796875 C49.72081512 56.6802384 45.90717723 64.6256981 42.0625 72.5625 C41.57265625 73.59818115 41.0828125 74.6338623 40.578125 75.70092773 C37.70351012 81.50751706 34.8235165 86.74974072 29 90 C24.10180635 91.07205156 20.18824824 90.45696094 15.75 88.125 C7.65143935 82.18192468 5.18071762 70.34085396 2.13671875 61.25 C1.6956673 59.94296389 1.2544043 58.63599914 0.8129425 57.32910156 C-0.10403935 54.60786342 -1.01494041 51.88467711 -1.92211914 49.16015625 C-3.07794755 45.69216162 -4.2543272 42.23152621 -5.4360323 38.77227783 C-6.35150957 36.08175487 -7.25312296 33.38673183 -8.15105247 30.69030762 C-8.78451307 28.79858222 -9.43155055 26.91142025 -10.07893372 25.02441406 C-12.25604094 18.40593963 -14.19713937 12.01398499 -13 5 C-9.59423381 -0.32150967 -5.89701858 -1.05475129 0 0 Z " fill="#DB2A79" transform="translate(40,41)"/>
<path d="M0 0 C5.29442186 4.31032858 8.93028199 9.13913664 9.9765625 15.97265625 C10.26996811 21.95996457 9.0915463 26.62381855 5.6015625 31.5234375 C-0.39248702 37.35974888 -6.71252005 39.01026764 -14.7734375 39.7109375 C-16.02060547 39.8337207 -16.02060547 39.8337207 -17.29296875 39.95898438 C-19.32711837 40.15772313 -21.36266699 40.34205334 -23.3984375 40.5234375 C-21.59944972 42.75530102 -21.59944972 42.75530102 -19.12353516 42.70288086 C-18.19589355 42.67331299 -17.26825195 42.64374512 -16.3125 42.61328125 C-14.79269531 42.58331055 -14.79269531 42.58331055 -13.2421875 42.55273438 C-11.10404502 42.4917558 -8.96601527 42.42668116 -6.828125 42.35742188 C-5.81234375 42.33873047 -4.7965625 42.32003906 -3.75 42.30078125 C-2.35515381 42.25812134 -2.35515381 42.25812134 -0.93212891 42.21459961 C2.13024303 42.58787967 3.44864174 43.33055605 5.6015625 45.5234375 C6.18372288 50.03518044 6.23695653 52.3320737 4.1015625 56.3359375 C-2.42872982 62.04994328 -9.34760566 61.99532138 -17.69921875 61.8125 C-26.71746233 61.10780092 -33.50228227 58.32682713 -40.0234375 51.9609375 C-45.70566156 44.47658413 -46.76431865 36.54711408 -46.8359375 27.3984375 C-46.8460083 26.5636084 -46.8560791 25.7287793 -46.86645508 24.86865234 C-46.75172862 16.60997447 -44.94015447 9.25265824 -39.2109375 3.09375 C-28.45746514 -6.22283597 -12.25645656 -7.54550583 0 0 Z " fill="#DB2A79" transform="translate(145.3984375,69.4765625)"/>
<path d="M0 0 C0.82564453 -0.020625 1.65128906 -0.04125 2.50195312 -0.0625 C9.92181387 -0.10927611 16.30987384 1.39376292 22.0625 6.3125 C22.68640625 6.81910156 23.3103125 7.32570313 23.953125 7.84765625 C30.81545078 16.71389649 30.46705858 26.67888896 30.38891602 37.39233398 C30.37493673 40.07464073 30.40933907 42.7535275 30.44726562 45.43554688 C30.44821599 47.15104252 30.44636243 48.86654251 30.44140625 50.58203125 C30.45466446 51.37793167 30.46792267 52.17383209 30.48158264 52.99385071 C30.41020374 57.25476086 30.1818964 58.79416581 27.39819336 62.22924805 C23.75233271 65.0785341 21.53102477 65.59011118 16.8515625 65.5390625 C13.64705438 65.08478357 11.98525789 63.55444019 9.8125 61.25 C8.57637578 57.54162734 8.65789965 54.08534079 8.63671875 50.22265625 C8.61352604 48.61001291 8.58940892 46.99738265 8.56445312 45.38476562 C8.52930772 42.84569465 8.49997154 40.30710719 8.48657227 37.76782227 C8.47109875 35.31467508 8.43090456 32.86293231 8.38671875 30.41015625 C8.38862717 29.6527565 8.39053558 28.89535675 8.39250183 28.11500549 C8.31134806 24.6172655 8.07599665 22.60578151 5.96801758 19.75952148 C3.09005918 17.7440705 1.25721581 17.88354087 -2.1875 18.25 C-3.1775 18.58 -4.1675 18.91 -5.1875 19.25 C-6.24392512 23.57485572 -6.33782997 27.79324275 -6.36328125 32.21875 C-6.3864683 33.77475328 -6.41058518 35.33074293 -6.43554688 36.88671875 C-6.47069521 39.32252311 -6.50004297 41.75782006 -6.51342773 44.19384766 C-6.52892724 46.5569256 -6.56912594 48.91855622 -6.61328125 51.28125 C-6.61137283 52.00534058 -6.60946442 52.72943115 -6.60749817 53.47546387 C-6.72430042 58.3215983 -7.68266929 60.88714417 -11.1875 64.25 C-14.79322704 65.45190901 -17.3977435 65.57670315 -21.1875 65.25 C-23.94079021 63.45437595 -25.71377461 62.19745078 -27.1875 59.25 C-27.31128623 56.26956509 -27.3759689 53.31348831 -27.390625 50.33203125 C-27.39632507 49.44142502 -27.40202515 48.55081879 -27.40789795 47.63322449 C-27.41735582 45.74434601 -27.42388505 43.85545097 -27.42773438 41.96655273 C-27.43740303 39.09133576 -27.46840335 36.21684487 -27.5 33.34179688 C-27.50653385 31.50521257 -27.51178282 29.66862316 -27.515625 27.83203125 C-27.5279718 26.97760941 -27.5403186 26.12318756 -27.55303955 25.24287415 C-27.52508263 17.66124755 -25.6114628 11.82055639 -20.1875 6.25 C-13.36455051 1.36067992 -8.28667173 0.05056703 0 0 Z " fill="#DB2978" transform="translate(189.1875,65.75)"/>
<path d="M0 0 C2.94049913 0.49630929 4.85170613 1.48094138 7.15234375 3.36328125 C9.72008142 7.21488776 9.43130095 10.39934622 9.42578125 14.86328125 C9.44606448 16.5716212 9.46691515 18.2799545 9.48828125 19.98828125 C9.5109178 22.68104685 9.52736601 25.37354974 9.53320312 28.06640625 C9.542704 30.66584698 9.57644406 33.26410456 9.61328125 35.86328125 C9.60823578 36.66958984 9.60319031 37.47589844 9.59799194 38.30664062 C9.6488224 42.76517129 9.6488224 42.76517129 11.99462891 46.3984375 C15.11222348 47.79250106 16.93655402 47.38959712 20.15234375 46.36328125 C22.94046587 43.80852618 23.15758148 42.30573145 23.50537109 38.484375 C23.51300543 36.92318536 23.50646522 35.36188366 23.48828125 33.80078125 C23.50078997 32.10025657 23.51382692 30.39973571 23.52734375 28.69921875 C23.53127896 26.02623057 23.52729098 23.35361683 23.51269531 20.68066406 C23.50413081 18.09513476 23.52579115 15.51117255 23.55078125 12.92578125 C23.53743744 12.127771 23.52409363 11.32976074 23.51034546 10.50756836 C23.56312856 6.54579332 23.76040634 4.77307758 26.54736328 1.85913086 C30.49430454 -0.4073086 33.727515 -0.31807825 38.15234375 0.36328125 C42.69288429 2.44436233 42.69288429 2.44436233 44.15234375 5.36328125 C44.43941334 11.0668817 44.46633215 16.77179221 44.50244141 22.48193359 C44.51892026 24.38863398 44.54610226 26.29527467 44.58447266 28.20166016 C45.01414253 49.67394482 45.01414253 49.67394482 37.53540039 58.20849609 C32.01092143 63.81257334 23.89136215 66.49417067 16.15234375 66.86328125 C8.13296269 66.48079885 0.45537312 63.60975138 -5.4140625 58.078125 C-12.73712343 49.31838726 -12.12824555 39.10684343 -12.19775391 28.32177734 C-12.2143251 26.43623522 -12.24163055 24.55075622 -12.27978516 22.66552734 C-12.33458823 19.94205261 -12.35643011 17.22004576 -12.37109375 14.49609375 C-12.39376312 13.65636017 -12.4164325 12.81662659 -12.43978882 11.95144653 C-12.4239928 7.56869212 -12.26291907 5.89035539 -9.45751953 2.32958984 C-6.00137651 -0.2743181 -4.16443079 -0.24252093 0 0 Z " fill="#DB2A78" transform="translate(362.84765625,64.63671875)"/>
<path d="M0 0 C3.0603333 1.7655769 5.50587755 3.50587755 8 6 C8.14507695 8.74485593 8.18652423 11.38480543 8.125 14.125 C8.11597656 14.87910156 8.10695313 15.63320313 8.09765625 16.41015625 C8.0740687 18.27357254 8.03819719 20.13682593 8 22 C8.79664063 21.94199219 9.59328125 21.88398437 10.4140625 21.82421875 C20.16028656 21.40923354 20.16028656 21.40923354 23.75 24.0625 C26 27 26 27 26.5 30.5625 C25.76470588 35.61764706 25.76470588 35.61764706 24 38 C20 40 20 40 8 40 C8 49.24 8 58.48 8 68 C12.29 68 16.58 68 21 68 C25 71 25 71 25.53125 73.0859375 C25.47772633 77.00654616 25.30553615 79.44768465 23.375 82.9375 C18.44188292 87.22152273 13.12421687 87.44513708 6.81640625 87.31640625 C0.99758156 86.6626964 -3.36162631 84.31782231 -7.875 80.6875 C-12.23050201 75.17907099 -13.37940823 70.47912742 -13.29296875 63.53515625 C-13.28872391 62.85698349 -13.28447906 62.17881073 -13.28010559 61.48008728 C-13.26347941 59.34046598 -13.22586174 57.20183053 -13.1875 55.0625 C-13.17243222 53.60092518 -13.1587475 52.13933542 -13.14648438 50.67773438 C-13.11362977 47.11817603 -13.06196241 43.55918444 -13 40 C-13.93070312 40.04125 -14.86140625 40.0825 -15.8203125 40.125 C-19 40 -19 40 -21.875 38 C-24.81148802 33.85436985 -24.7152453 32.00671711 -24 27 C-22.4375 24.5625 -22.4375 24.5625 -20 23 C-17.6739143 22.61936779 -15.34018143 22.28125868 -13 22 C-13.08121094 20.91460937 -13.16242188 19.82921875 -13.24609375 18.7109375 C-13.83885243 7.49291418 -13.83885243 7.49291418 -11.65234375 3.6015625 C-8.08907796 0.39070761 -4.81694121 -1.02488111 0 0 Z " fill="#DB2B79" transform="translate(434,44)"/>
<path d="M0 0 C2.67345219 1.99363149 4.69371392 3.52624562 5.39672852 6.90893555 C5.49164894 9.06476833 5.43762299 11.1584596 5.3125 13.3125 C5.28994141 14.05306641 5.26738281 14.79363281 5.24414062 15.55664062 C5.1855815 17.37197357 5.09590886 19.18625681 5 21 C5.72445312 20.96519531 6.44890625 20.93039063 7.1953125 20.89453125 C12.88678251 20.73517009 17.12427934 20.6639806 22 24 C23.62190015 27.24380031 23.5429478 30.49430004 23 34 C21.3125 37 21.3125 37 18 39 C13.71 39 9.42 39 5 39 C5 48.24 5 57.48 5 67 C9.29 67 13.58 67 18 67 C22 70 22 70 22.53125 72.0859375 C22.47827161 75.96660451 22.28852544 78.45757217 20.4375 81.9375 C15.54728974 86.07537022 9.75157846 86.45779859 3.55859375 86.31640625 C-2.05942241 85.62165921 -6.42371542 83.19934696 -10.875 79.8125 C-16.95723553 71.76248239 -16.37396063 62.6382337 -16.1875 52.9375 C-16.17241956 51.58139514 -16.15873712 50.22527398 -16.14648438 48.86914062 C-16.11135836 45.57900398 -16.0621664 42.28971817 -16 39 C-16.93070313 39.04125 -17.86140625 39.0825 -18.8203125 39.125 C-22 39 -22 39 -24.875 37 C-27.22986073 33.67549073 -27.81169183 31.928626 -27.5546875 27.9375 C-26.4812192 24.18792059 -24.28696911 22.98458512 -21 21 C-18.29296875 20.875 -18.29296875 20.875 -16 21 C-16.04640625 19.97519531 -16.0928125 18.95039062 -16.140625 17.89453125 C-16.17816011 16.53388344 -16.21455841 15.17320395 -16.25 13.8125 C-16.30027344 12.80219727 -16.30027344 12.80219727 -16.3515625 11.77148438 C-16.42309967 8.1052044 -16.12589366 6.19167826 -14.09375 3.09765625 C-9.90274494 -1.10116785 -5.74738586 -2.12985063 0 0 Z " fill="#DB2A79" transform="translate(247,45)"/>
<path d="M0 0 C3 1 3 1 5 3 C8.44536589 10.08448096 8.48428109 16.65057495 8.4375 24.4375 C8.4674707 26.2019043 8.4674707 26.2019043 8.49804688 28.00195312 C8.49408169 35.09566259 7.85700297 40.91442843 4 47 C1.01803325 49.81156865 -1.52813277 50.21354729 -5.5 50.4375 C-8.62728072 50.30762954 -10.02997072 49.9843631 -12.875 48.5 C-19.08730181 41.19140964 -18.48779283 32.54964712 -18.4375 23.4375 C-18.45748047 22.14908203 -18.47746094 20.86066406 -18.49804688 19.53320312 C-18.49443898 12.53748575 -18.42517407 7.5774798 -14 2 C-9.52298703 -0.98467532 -5.24624617 -0.46923903 0 0 Z " fill="#F2F0F3" transform="translate(313,61)"/>
<path d="M0 0 C3.3 0 6.6 0 10 0 C10.20753906 0.67546875 10.41507813 1.3509375 10.62890625 2.046875 C12.68539153 8.23718785 12.68539153 8.23718785 17.25 12.625 C21.75467532 14.27671428 24.242105 14.53718169 29 14 C31.81780534 12.61114752 31.81780534 12.61114752 34 11 C34.66 11 35.32 11 36 11 C37.49140021 7.37802806 38.7874262 3.72433382 40 0 C43.3 0 46.6 0 50 0 C49.49118522 7.12340689 48.19199828 12.80171826 43.015625 17.98828125 C38.30540182 21.91076021 34.11523169 24.33889387 28 25 C27.29101562 25.0928125 26.58203125 25.185625 25.8515625 25.28125 C18.63228953 25.78786565 12.57071858 23.09062197 7.140625 18.390625 C2.07265551 12.92123218 0 7.40401539 0 0 Z " fill="#F2EEF2" transform="translate(520,91)"/>
<path d="M0 0 C2.375 1.5625 2.375 1.5625 4 4 C4.56783945 7.97487617 4.62340519 10.06489221 2.375 13.4375 C-0.71685231 15.47161336 -2.36367425 15.60605429 -6 15 C-8.375 13.4375 -8.375 13.4375 -10 11 C-10.56783945 7.02512383 -10.62340519 4.93510779 -8.375 1.5625 C-5.28314769 -0.47161336 -3.63632575 -0.60605429 0 0 Z " fill="#F2ECF1" transform="translate(568,66)"/>
<path d="M0 0 C2.375 1.5625 2.375 1.5625 4 4 C4.56783945 7.97487617 4.62340519 10.06489221 2.375 13.4375 C-0.71685231 15.47161336 -2.36367425 15.60605429 -6 15 C-8.375 13.4375 -8.375 13.4375 -10 11 C-10.56783945 7.02512383 -10.62340519 4.93510779 -8.375 1.5625 C-5.28314769 -0.47161336 -3.63632575 -0.60605429 0 0 Z " fill="#F2ECF1" transform="translate(528,66)"/>
<path d="M0 0 C3.35345908 0.55890985 4.80827201 0.88678586 7 3.5 C7.375 7.0625 7.375 7.0625 7 10.5 C5 12.5 5 12.5 2.1796875 12.6953125 C1.08914062 12.67210938 -0.00140625 12.64890625 -1.125 12.625 C-2.22070312 12.60695313 -3.31640625 12.58890625 -4.4453125 12.5703125 C-5.28835937 12.54710938 -6.13140625 12.52390625 -7 12.5 C-7.31390173 8.497753 -7.34116018 6.11671263 -5.375 2.5625 C-3 0.5 -3 0.5 0 0 Z " fill="#F1E8EE" transform="translate(127,81.5)"/>
</svg>
