<?xml version="1.0" standalone="no"?>
<!DOCTYPE svg PUBLIC "-//W3C//DTD SVG 20010904//EN"
 "http://www.w3.org/TR/2001/REC-SVG-20010904/DTD/svg10.dtd">
<svg version="1.0" xmlns="http://www.w3.org/2000/svg"
 width="642.000000pt" height="171.000000pt" viewBox="0 0 642.000000 171.000000"
 preserveAspectRatio="xMidYMid meet" fill="#ffffff">

<g transform="translate(0.000000,171.000000) scale(0.100000,-0.100000)"
fill="#000000" stroke="none">
<path d="M5370 1343 c-51 -8 -147 -47 -198 -80 -108 -72 -189 -198 -213 -334
-32 -182 58 -389 213 -492 297 -195 691 -31 765 317 44 212 -68 441 -266 540
-86 44 -209 64 -301 49z m-69 -312 c52 -42 17 -131 -51 -131 -44 0 -74 31 -74
75 0 44 30 75 74 75 15 0 38 -8 51 -19z m400 0 c52 -42 17 -131 -51 -131 -44
0 -74 31 -74 75 0 44 30 75 74 75 15 0 38 -8 51 -19z m-392 -270 c23 -78 111
-126 185 -101 42 14 92 67 101 109 6 30 9 31 56 31 47 0 49 -1 49 -27 0 -16
-11 -51 -24 -78 -73 -157 -291 -194 -408 -69 -33 36 -67 110 -68 147 0 26 2
27 48 27 48 0 49 -1 61 -39z"/>
<path d="M299 1271 c-22 -22 -29 -39 -29 -68 0 -22 47 -179 111 -372 96 -288
116 -339 146 -372 39 -43 95 -64 140 -53 60 15 82 43 164 207 107 217 130 291
136 437 6 125 -4 183 -37 218 -47 50 -133 40 -164 -19 -19 -34 -19 -42 -7
-118 17 -105 10 -147 -52 -308 -50 -127 -63 -149 -72 -120 -2 6 -42 132 -89
279 -76 234 -90 269 -117 292 -43 36 -91 35 -130 -3z"/>
<path d="M2977 1290 c-177 -45 -245 -184 -234 -479 8 -209 49 -305 157 -365
49 -27 66 -31 155 -34 112 -5 162 5 220 43 91 59 134 167 142 350 12 262 -45
406 -186 468 -52 23 -193 32 -254 17z m176 -202 c11 -5 28 -31 40 -56 17 -39
21 -67 21 -172 1 -192 -34 -260 -134 -260 -93 0 -130 57 -137 215 -6 112 8
208 35 245 34 45 118 59 175 28z"/>
<path d="M2345 1234 c-23 -25 -32 -59 -37 -149 -3 -36 -6 -40 -35 -46 -43 -9
-60 -24 -68 -60 -13 -57 28 -109 84 -109 17 0 19 -14 23 -152 8 -229 38 -281
177 -308 121 -23 201 19 201 105 0 60 -27 78 -107 73 l-58 -3 -3 143 -3 142
65 0 c79 0 105 18 113 76 4 33 1 45 -18 67 -20 23 -35 28 -94 33 l-70 6 0 80
c0 75 -2 81 -28 104 -40 35 -109 34 -142 -2z"/>
<path d="M4258 1249 c-30 -17 -43 -51 -48 -129 l-5 -75 -32 -3 c-99 -10 -93
-172 7 -172 l30 0 0 -130 c0 -197 23 -265 101 -306 82 -42 215 -36 257 12 29
33 30 96 1 125 -17 17 -30 20 -82 17 l-62 -3 -3 143 -3 142 59 0 c91 0 135 46
111 117 -14 42 -33 52 -115 60 l-65 6 6 47 c8 59 -9 125 -38 145 -24 17 -93
20 -119 4z"/>
<path d="M3563 1050 c-51 -20 -55 -43 -51 -257 4 -218 10 -244 77 -310 54 -54
95 -68 206 -68 91 0 104 2 147 28 58 34 95 81 114 143 18 59 20 390 3 428 -12
26 -54 46 -96 46 -31 0 -79 -25 -87 -45 -3 -9 -6 -92 -6 -184 0 -182 -8 -222
-46 -240 -36 -16 -49 -14 -81 13 l-28 24 -3 179 c-1 98 -5 188 -7 200 -10 42
-87 65 -142 43z"/>
<path d="M1141 1028 c-108 -53 -146 -133 -146 -303 1 -94 4 -118 24 -163 47
-104 142 -154 296 -156 127 -1 180 26 192 97 4 29 1 40 -21 62 -27 27 -27 27
-134 20 -101 -7 -108 -6 -126 14 l-19 21 45 0 c127 0 228 41 266 108 43 77 24
200 -40 258 -49 45 -89 58 -193 61 -86 3 -106 0 -144 -19z m183 -157 c17 -19
25 -75 13 -88 -9 -8 -127 -24 -137 -18 -12 8 6 84 25 105 23 26 76 26 99 1z"/>
<path d="M1765 1026 c-27 -13 -64 -39 -82 -57 -55 -58 -63 -98 -63 -314 0
-177 2 -194 20 -218 25 -32 78 -42 123 -23 19 8 38 20 43 27 5 8 11 101 14
207 5 189 6 194 29 213 32 26 77 24 106 -6 25 -24 25 -27 25 -195 0 -203 8
-233 67 -250 29 -9 47 -8 78 2 60 20 67 52 63 268 -3 164 -5 178 -29 231 -46
97 -125 139 -263 139 -64 0 -91 -5 -131 -24z"/>
</g>

</svg>
